# AST/ASF file generated using VICON BodyLanguage
# -----------------------------------------------
:version 1.10
:name VICON
:units
  mass 1.0
  length 0.45
  angle deg
:documentation
   .ast/.asf automatically generated from VICON data using
   VICON BodyBuilder and BodyLanguage model FoxedUp or BRILLIANT.MOD
:root
   order TX TY TZ RX RY RZ
   axis XYZ
   position 0 0 0  
   orientation 0 0 0 
:bonedata
  begin
     id 1 
     name lhipjoint
     direction 0.584852 -0.759097 0.285867 
     length 2.43633 
     axis 0 0 0  XYZ
  end
  begin
     id 2 
     name lfemur
     direction 0.34202 -0.939693 0  
     length 7.14704  
     axis 0 0 20  XYZ
    dof rx ry rz
    limits (-160.0 20.0)
           (-70.0 70.0)
           (-60.0 70.0)
  end
  begin
     id 3 
     name ltibia
     direction 0.342022 -0.939692 0   
     length 7.68483   
     axis 0 0 20   XYZ
    dof rx
    limits (-10.0 170.0)
  end
  begin
     id 4 
     name lfoot
     direction 0.0999605 -0.274639 0.956337   
     length 2.40452   
     axis -90 7.62852e-016 20   XYZ
    dof rx rz
    limits (-45.0 90.0)
           (-70.0 20.0)
  end
  begin
     id 5 
     name ltoes
     direction 1.53468e-011 -4.21881e-011 1   
     length 1.19837   
     axis -90 7.62852e-016 20   XYZ
    dof rx
    limits (-90.0 20.0)
  end
  begin
     id 6 
     name rhipjoint
     direction -0.569886 -0.769002 0.289597   
     length 2.40495  
     axis 0 0 0  XYZ 
  end
  begin
     id 7 
     name rfemur
     direction -0.34202 -0.939693 0   
     length 7.45086   
     axis 0 0 -20   XYZ
    dof rx ry rz
    limits (-160.0 20.0)
           (-70.0 70.0)
           (-70.0 60.0)
  end
  begin
     id 8 
     name rtibia
     direction -0.34202 -0.939693 0   
     length 7.76831   
     axis 0 0 -20   XYZ
    dof rx
    limits (-10.0 170.0)
 end
 begin
     id 9 
     name rfoot
     direction -0.0798572 -0.219406 0.97236   
     length 2.35911  
     axis -90 -7.62852e-016 -20   XYZ
    dof rx rz
    limits (-45.0 90.0)
           (-20.0 70.0)
  end
  begin
     id 10 
     name rtoes
     direction -1.53469e-011 -4.21728e-011 1   
     length 1.18261   
     axis -90 -7.62852e-016 -20   XYZ
    dof rx
    limits (-90.0 20.0)
  end
  begin
     id 11 
     name lowerback
     direction 0.0242088 0.999437 0.0232389   
     length 2.1561   
     axis 0 0 0   XYZ
    dof rx ry rz
    limits (-20.0 45.0)
           (-30.0 30.0)
           (-30.0 30.0)
  end
  begin
     id 12 
     name upperback
     direction -0.0356893 0.999013 -0.0264323   
     length 2.14431   
     axis 0 0 0   XYZ
    dof rx ry rz
    limits (-20.0 45.0)
           (-30.0 30.0)
           (-30.0 30.0)
  end
  begin
     id 13 
     name thorax
     direction -0.0472163 0.998194 -0.0371284   
     length 2.16169   
     axis 0 0 0   XYZ
    dof rx ry rz
    limits (-20.0 45.0)
           (-30.0 30.0)
           (-30.0 30.0)
  end
  begin
     id 14 
     name lowerneck
     direction 0.00863244 0.999921 0.00911972   
     length 1.58651   
     axis 0 0 0   XYZ
    dof rx ry rz
    limits (-20.0 45.0)
           (-30.0 30.0)
           (-30.0 30.0)
  end
  begin
     id 15 
     name upperneck
     direction 0.149523 0.979068 -0.138086   
     length 1.57486   
     axis 0 0 0   XYZ
    dof rx ry rz
    limits (-20.0 45.0)
           (-30.0 30.0)
           (-30.0 30.0)
  end
  begin
     id 16
     name head
     direction 0.0445219 0.997708 -0.0509576  
     length 1.6019  
     axis 0 0 0   XYZ
    dof rx ry rz
    limits (-20.0 45.0)
           (-30.0 30.0)
           (-30.0 30.0)
  end
  begin
     id 17 
     name lclavicle
     direction 0.911271 0.381667 -0.154644  
     length 3.80848  
     axis 0 0 0   XYZ
    dof ry rz
    limits (-20.0 10.0)
           (0.0 20.0)
  end
  begin
     id 18 
     name lhumerus
     direction 1 -4.49003e-011 2.1308e-027   
     length 5.19069   
     axis 180 -30 -90   XYZ
    dof rx ry rz
    limits (-60.0 90.0)
           (-90.0 90.0)
           (-90.0 90.0)
  end
  begin
     id 19
     name lradius
     direction 1 -4.48914e-011 4.01554e-027   
     length 3.30016   
     axis 180 -30 -90   XYZ
    dof rx
    limits (-10.0 170.0)
  end
  begin
     id 20
     name lwrist
     direction 1 -4.49003e-011 1.1934e-026   
     length 1.65008   
     axis -8.46377e-015 90 90   XYZ
    dof ry
    limits (-180.0 0.0)
 end
  begin
     id 21 
     name lhand
     direction 1 -4.49034e-011 2.38659e-026   
     length 0.707698   
     axis -1.52313e-014 90 90   XYZ
    dof rx rz
    limits (-90.0 90.0)
           (-45.0 45.0)
  end
  begin
     id 22 
     name lfingers
     direction 1 -4.48691e-011 4.77775e-026   
     length 0.570564   
     axis -3.04623e-014 90 90   XYZ
    dof rx
    limits (0.0 90.0)
  end
  begin
     id 23
     name lthumb
     direction 0.707107 -6.34832e-011 0.707107   
     length 0.819219   
     axis -90 45 -1.62303e-014   XYZ
    dof rx rz
    limits (-45.0 45.0)
           (-45.0 45.0)
  end
  begin
     id 24 
     name rclavicle
     direction -0.815579 0.573708 -0.0754329   
     length 3.54371  
     axis 0 0 0   XYZ 
    dof ry rz
    limits (-10.0 20.0)
           (-20.0 0.0)
  end
  begin
     id 25 
     name rhumerus
     direction -1 -4.48956e-011 3.05351e-028  
     length 5.23924   
     axis 180 30 90   XYZ
    dof rx ry rz
    limits (-90.0 60.0)
           (-90.0 90.0)
           (-90.0 90.0)
  end
  begin
     id 26 
     name rradius
     direction -1 -4.49013e-011 3.53849e-027   
     length 3.32953   
     axis 180 30 90   XYZ
    dof rx
    limits (-10.0 170.0)
  end
  begin
     id 27 
     name rwrist
     direction -1 -4.48901e-011 1.19374e-026   
     length 1.66477   
     axis -8.46377e-015 -90 -90   XYZ
    dof ry
    limits (-180.0 0.0)
  end
  begin
     id 28
     name rhand
     direction -1 -4.48877e-011 2.38764e-026   
     length 0.607414   
     axis -1.52313e-014 -90 -90   XYZ
    dof rx rz
    limits (-90.0 90.0)
           (-45.0 45.0)
  end
  begin
     id 29
     name rfingers
     direction -1 -4.48882e-011 4.77521e-026   
     length 0.489712   
     axis -3.04623e-014 -90 -90   XYZ
    dof rx
    limits (0.0 90.0)
  end
  begin
     id 30
     name rthumb
     direction -0.707107 -6.34974e-011 0.707107   
     length 0.703132   
     axis -90 -45 1.62303e-014   XYZ
    dof rx rz
    limits (-45.0 45.0)
           (-45.0 45.0)
  end
:hierarchy
  begin
    root lhipjoint rhipjoint lowerback
    lhipjoint lfemur
    lfemur ltibia
    ltibia lfoot
    lfoot ltoes
    rhipjoint rfemur
    rfemur rtibia
    rtibia rfoot
    rfoot rtoes
    lowerback upperback
    upperback thorax
    thorax lowerneck lclavicle rclavicle
    lowerneck upperneck
    upperneck head
    lclavicle lhumerus
    lhumerus lradius
    lradius lwrist
    lwrist lhand lthumb
    lhand lfingers
    rclavicle rhumerus
    rhumerus rradius
    rradius rwrist
    rwrist rhand rthumb
    rhand rfingers
  end

#!OML:ASF E:\VariousWalksJay\Project 1\Capture day 1\Session 1\Actor2.ASF
:FULLY-SPECIFIED
:DEGREES
535
root 14.5849 14.6494 35.5375 176.972 -53.294 -170.23
lowerback 19.4952 2.97709 -0.0312955
upperback 19.6625 0.618466 -1.14772
thorax 11.0893 -0.879763 -1.56453
lowerneck 7.6491 -6.35707 -10.6181
upperneck -7.87043 -8.45909 16.5291
head -2.35816 -4.72752 7.11288
rclavicle 1.90833e-014 1.06549e-013
rhumerus -0.296775 24.6515 -72.4067
rradius 69.0012
rwrist 2.9759
rhand -13.0906 -8.33545
rfingers 7.12502
rthumb 13.0059 -37.91
lclavicle 1.90833e-014 1.06549e-013
lhumerus 4.20103 2.73401 52.6985
lradius 83.4711
lwrist 8.56118
lhand -6.65171 -10.9638
lfingers 7.12502
lthumb 19.2058 18.1079
rfemur -28.5271 -16.6763 23.8983
rtibia 89.5462
rfoot -24.5025 -13.1096
rtoes -19.3757
lfemur -50.6149 19.7516 -21.5061
ltibia 72.2566
lfoot -27.5788 11.665
ltoes -7.04396
536
root 14.5289 14.6247 35.4835 176.888 -53.2146 -169.877
lowerback 19.6858 2.92253 0.290699
upperback 19.7946 0.550488 -1.72295
thorax 11.1848 -0.837688 -2.38368
lowerneck 7.74529 -6.3873 -9.90866
upperneck -7.89938 -8.43786 16.3857
head -2.42611 -4.73757 6.957
rclavicle -1.59028e-015 5.00937e-014
rhumerus -0.561912 24.308 -73.0607
rradius 69.1168
rwrist 2.71665
rhand -13.0362 -8.3776
rfingers 7.12502
rthumb 13.0583 -37.9488
lclavicle -1.59028e-015 5.00937e-014
lhumerus 6.09944 2.42157 52.0009
lradius 82.752
lwrist 8.18367
lhand -6.42676 -10.9855
lfingers 7.12502
lthumb 19.4221 18.0645
rfemur -30.2295 -16.8544 24.6336
rtibia 90.2775
rfoot -24.4984 -13.0722
rtoes -19.2662
lfemur -50.8029 20.1336 -21.2627
ltibia 72.788
lfoot -28.0893 11.4555
ltoes -7.28836
537
root 14.4741 14.6082 35.4184 176.854 -53.1747 -169.582
lowerback 19.7926 2.79135 0.40943
upperback 19.9162 0.361731 -2.24988
thorax 11.2957 -0.883752 -3.02692
lowerneck 7.75083 -6.33116 -9.55277
upperneck -7.82422 -8.33793 16.299
head -2.43973 -4.69469 6.86889
rclavicle 6.36111e-014 1.27222e-014
rhumerus -0.9832 24.2731 -73.8427
rradius 69.3255
rwrist 2.63604
rhand -13.0741 -8.40069
rfingers 7.12502
rthumb 13.0218 -37.9743
lclavicle 6.36111e-014 1.27222e-014
lhumerus 7.6517 2.37148 51.3816
lradius 82.046
lwrist 7.71683
lhand -6.21969 -11.0521
lfingers 7.12502
lthumb 19.6212 17.9778
rfemur -31.8637 -17.0319 25.4027
rtibia 90.8467
rfoot -24.6396 -13.2354
rtoes -19.5278
lfemur -50.9073 20.5145 -21.0052
ltibia 73.236
lfoot -28.5514 11.2446
ltoes -7.65088
538
root 14.4158 14.5902 35.365 176.881 -53.1415 -169.283
lowerback 19.947 2.5624 0.745459
upperback 19.9242 0.102474 -2.89321
thorax 11.2376 -0.917945 -3.90872
lowerneck 7.87076 -6.24357 -9.02923
upperneck -7.73105 -8.18614 16.209
head -2.48179 -4.63445 6.75677
rclavicle -8.42847e-014 2.78299e-014
rhumerus -1.60938 24.2293 -74.8769
rradius 69.55
rwrist 2.54642
rhand -13.0356 -8.54399
rfingers 7.12502
rthumb 13.0589 -38.1152
lclavicle -8.42847e-014 2.78299e-014
lhumerus 9.05515 2.25309 50.7405
lradius 81.2747
lwrist 7.20786
lhand -6.03068 -11.2425
lfingers 7.12502
lthumb 19.8029 17.7687
rfemur -33.6243 -17.2566 26.1374
rtibia 91.3027
rfoot -24.3384 -13.5929
rtoes -20.98
lfemur -51.0884 20.7093 -20.7979
ltibia 73.639
lfoot -28.9897 11.1477
ltoes -7.93213
539
root 14.3535 14.5734 35.3181 177.115 -53.1209 -169.124
lowerback 19.9568 2.37333 0.949286
upperback 19.976 -0.130557 -3.30182
thorax 11.2982 -0.975769 -4.46286
lowerneck 7.77596 -6.23431 -8.90104
upperneck -7.66137 -8.1686 16.0897
head -2.45914 -4.61949 6.69121
rclavicle -5.88403e-014 3.02153e-014
rhumerus -2.08019 24.2929 -75.3047
rradius 69.8085
rwrist 2.37904
rhand -13.0167 -8.62832
rfingers 7.12502
rthumb 13.0771 -38.1984
lclavicle -5.88403e-014 3.02153e-014
lhumerus 10.4308 2.1982 50.6705
lradius 80.5169
lwrist 6.67314
lhand -5.99495 -11.4699
lfingers 7.12502
lthumb 19.8372 17.5378
rfemur -35.5258 -17.4529 26.7667
rtibia 91.672
rfoot -24.5015 -13.5931
rtoes -20.7715
lfemur -51.4023 21.0283 -20.7946
ltibia 74.0068
lfoot -29.3804 10.9048
ltoes -8.17257
540
root 14.2957 14.5674 35.2551 177.008 -53.052 -168.833
lowerback 20.0793 2.25863 0.742467
upperback 20.0835 -0.349595 -3.45474
thorax 11.3503 -1.11318 -4.50425
lowerneck 7.67053 -6.077 -9.24616
upperneck -7.5658 -7.99966 16.0122
head -2.42373 -4.51499 6.7143
rclavicle -2.70347e-014 -3.02153e-014
rhumerus -2.33397 24.8417 -75.2885
rradius 70.0431
rwrist 1.91226
rhand -13.0207 -8.79993
rfingers 7.12502
rthumb 13.0732 -38.3702
lclavicle -2.70347e-014 -3.02153e-014
lhumerus 11.4628 2.41544 50.9547
lradius 79.7677
lwrist 6.16504
lhand -6.18571 -11.6485
lfingers 7.12502
lthumb 19.6538 17.378
rfemur -37.0168 -17.525 27.4942
rtibia 91.8371
rfoot -24.6606 -13.752
rtoes -20.7553
lfemur -51.327 21.4832 -20.5174
ltibia 74.3012
lfoot -29.7819 10.6267
ltoes -8.55126
541
root 14.2362 14.5609 35.1989 176.975 -53.0221 -168.552
lowerback 20.189 2.01058 0.651345
upperback 20.1414 -0.711487 -3.67071
thorax 11.3357 -1.29736 -4.66155
lowerneck 7.48717 -5.88948 -9.5641
upperneck -7.40928 -7.79116 15.8671
head -2.36746 -4.38462 6.70621
rclavicle -4.13472e-014 -1.74931e-014
rhumerus -2.57978 25.5836 -75.3412
rradius 70.2858
rwrist 1.48935
rhand -12.957 -8.97481
rfingers 7.12502
rthumb 13.1347 -38.5411
lclavicle -4.13472e-014 -1.74931e-014
lhumerus 12.2083 2.72132 51.2032
lradius 79.1006
lwrist 5.85546
lhand -6.50578 -11.782
lfingers 7.12502
lthumb 19.3461 17.2757
rfemur -38.6162 -17.6108 28.1862
rtibia 91.9323
rfoot -24.6843 -13.8219
rtoes -20.8155
lfemur -51.3275 21.8301 -20.2921
ltibia 74.5457
lfoot -30.1391 10.3613
ltoes -8.73435
542
root 14.1739 14.5565 35.1461 177.078 -52.9733 -168.439
lowerback 20.3453 1.79681 0.955637
upperback 20.1286 -0.956573 -4.15719
thorax 11.2265 -1.34249 -5.35147
lowerneck 7.48067 -5.79725 -9.34565
upperneck -7.25904 -7.6609 15.8283
head -2.35111 -4.32162 6.65213
rclavicle -4.77083e-014 -5.24792e-014
rhumerus -3.27269 25.6649 -75.9855
rradius 70.5433
rwrist 1.22798
rhand -12.8235 -9.06578
rfingers 7.12502
rthumb 13.2634 -38.6238
lclavicle -4.77083e-014 -5.24792e-014
lhumerus 13.1936 2.47899 51.1663
lradius 78.3753
lwrist 5.78016
lhand -6.66155 -11.9356
lfingers 7.12502
lthumb 19.1963 17.137
rfemur -40.2387 -17.6347 28.7258
rtibia 91.9388
rfoot -24.6302 -13.8728
rtoes -21.0181
lfemur -51.2974 22.1421 -20.1962
ltibia 74.7146
lfoot -30.4671 10.181
ltoes -8.95633
543
root 14.1149 14.559 35.0865 177.128 -52.8424 -168.371
lowerback 20.4788 1.76301 0.683135
upperback 20.1609 -1.06087 -4.21777
thorax 11.1821 -1.43475 -5.2546
lowerneck 7.42151 -5.70062 -9.56378
upperneck -7.158 -7.56857 15.5708
head -2.32568 -4.25076 6.6004
rclavicle 1.59028e-015 1.90833e-014
rhumerus -3.71398 26.1052 -75.8311
rradius 70.776
rwrist 0.82503
rhand -12.6621 -9.25071
rfingers 7.12502
rthumb 13.4189 -38.7985
lclavicle 1.59028e-015 1.90833e-014
lhumerus 13.9488 2.45622 51.8423
lradius 77.687
lwrist 5.78283
lhand -6.85348 -12.0367
lfingers 7.12502
lthumb 19.0117 17.0542
rfemur -41.677 -17.497 29.2257
rtibia 91.8431
rfoot -24.6437 -13.9238
rtoes -21.1947
lfemur -51.06 22.5943 -20.0281
ltibia 74.7909
lfoot -30.8052 9.89162
ltoes -9.15681
544
root 14.0549 14.5674 35.0173 177.254 -52.6724 -168.429
lowerback 20.5773 1.79927 0.44949
upperback 20.183 -1.06445 -4.37188
thorax 11.1562 -1.46156 -5.29736
lowerneck 7.44979 -5.6686 -9.66003
upperneck -7.08809 -7.54339 15.5338
head -2.31098 -4.23253 6.60339
rclavicle -2.8625e-014 6.83819e-014
rhumerus -4.30786 26.24 -75.9817
rradius 70.9298
rwrist 0.616289
rhand -12.2785 -9.35218
rfingers 7.12502
rthumb 13.7886 -38.8752
lclavicle -2.8625e-014 6.83819e-014
lhumerus 14.7292 2.16711 52.3544
lradius 77.0231
lwrist 5.91542
lhand -7.13553 -12.0278
lfingers 7.12502
lthumb 18.7405 17.0894
rfemur -42.9663 -17.2881 29.6654
rtibia 91.6164
rfoot -24.5929 -14.1712
rtoes -21.821
lfemur -50.6926 23.1153 -19.8814
ltibia 74.7862
lfoot -31.1277 9.61511
ltoes -9.45418
545
root 13.9891 14.5841 34.953 177.438 -52.5352 -168.521
lowerback 20.5969 1.71809 0.443652
upperback 20.2334 -1.19297 -4.64881
thorax 11.2005 -1.50944 -5.59923
lowerneck 7.39312 -5.58322 -9.56726
upperneck -7.10959 -7.42267 15.3881
head -2.33352 -4.16743 6.53985
rclavicle -6.52014e-014 -1.31993e-013
rhumerus -4.82283 26.1598 -76.3207
rradius 71.1207
rwrist 0.605718
rhand -11.791 -9.42709
rfingers 7.12502
rthumb 14.2584 -38.9176
lclavicle -6.52014e-014 -1.31993e-013
lhumerus 15.5154 1.9304 52.7658
lradius 76.3119
lwrist 6.08675
lhand -7.43657 -11.9924
lfingers 7.12502
lthumb 18.4509 17.1526
rfemur -44.3556 -17.1028 29.9947
rtibia 91.3439
rfoot -24.4131 -14.173
rtoes -21.621
lfemur -50.2852 23.5266 -19.7855
ltibia 74.6757
lfoot -31.4368 9.38358
ltoes -9.75313
